<svg width="5.000000" height="8.732704" viewBox="0 0 5 8.7327" fill="none" xmlns="http://www.w3.org/2000/svg" xmlns:xlink="http://www.w3.org/1999/xlink">
	<desc>
			Created with Pixso.
	</desc>
	<defs/>
	<path id="Vector" d="M0.99 8.55L4.87 4.68C4.91 4.64 4.95 4.59 4.97 4.53C4.99 4.48 5 4.42 5 4.36C5 4.3 4.99 4.24 4.97 4.19C4.95 4.13 4.91 4.08 4.87 4.04L0.99 0.16C0.88 0.05 0.74 0 0.58 0C0.42 0 0.28 0.05 0.17 0.17C0.05 0.28 0 0.42 0 0.57C0 0.72 0.05 0.86 0.17 0.97L3.55 4.36L0.17 7.75C0.06 7.86 0.01 7.99 0.01 8.15C0.01 8.3 0.06 8.44 0.18 8.55C0.29 8.67 0.43 8.73 0.58 8.73C0.74 8.73 0.87 8.67 0.99 8.55Z" fill="#FFFFFF" fill-opacity="1.000000" fill-rule="nonzero"/>
</svg>
