<svg width="101.523315" height="16.029999" viewBox="0 0 101.523 16.03" fill="none" xmlns="http://www.w3.org/2000/svg" xmlns:xlink="http://www.w3.org/1999/xlink">
	<desc>
			Created with Pixso.
	</desc>
	<defs>
		<clipPath id="clip10_203">
			<rect id="LOGO Alpha актуальный 3" rx="-0.500000" width="100.523331" height="15.030001" transform="translate(0.500000 0.500000) rotate(-0.000000)" fill="white" fill-opacity="0"/>
		</clipPath>
		<linearGradient x1="0.026267" y1="0.226343" x2="19.690523" y2="0.226343" id="paint_linear_10_289_0" gradientUnits="userSpaceOnUse">
			<stop stop-color="#7A5FFF"/>
			<stop offset="1.000000" stop-color="#00E824"/>
		</linearGradient>
	</defs>
	<rect id="LOGO Alpha актуальный 3" rx="-0.500000" width="100.523331" height="15.030001" transform="translate(0.500000 0.500000) rotate(-0.000000)" fill="#FFFFFF" fill-opacity="0"/>
	<g clip-path="url(#clip10_203)">
		<path id="Vector" d="M27.11 6.97L24.8 6.97L24.36 8.51L22.53 8.51L24.9 1.47L27.09 1.47L29.46 8.51L27.55 8.51L27.11 6.97ZM25.15 5.68L26.76 5.68L25.98 2.96L25.94 2.96L25.15 5.68Z" fill="#FFFFFF" fill-opacity="1.000000" fill-rule="nonzero"/>
		<path id="Vector" d="M30.06 1.12L31.79 1.12L31.79 8.51L30.06 8.51L30.06 1.12Z" fill="#FFFFFF" fill-opacity="1.000000" fill-rule="evenodd"/>
		<path id="Vector" d="M36.1 3C36.79 3 37.32 3.25 37.7 3.74C38.08 4.22 38.28 4.91 38.28 5.79C38.28 6.67 38.09 7.36 37.7 7.85C37.33 8.34 36.8 8.58 36.12 8.58C35.3 8.58 34.75 8.25 34.45 7.58L34.42 7.58L34.42 10.16L32.69 10.16L32.69 3.08L34.41 3.08L34.41 4.03L34.44 4.03C34.58 3.71 34.79 3.46 35.08 3.28C35.37 3.1 35.71 3 36.1 3ZM35.46 7.22C35.78 7.22 36.03 7.09 36.22 6.84C36.41 6.57 36.5 6.23 36.5 5.79C36.5 5.36 36.41 5.01 36.22 4.76C36.03 4.5 35.78 4.37 35.46 4.37C35.14 4.37 34.89 4.5 34.7 4.76C34.51 5.02 34.42 5.36 34.42 5.8C34.42 6.23 34.51 6.58 34.7 6.84C34.89 7.09 35.14 7.22 35.46 7.22Z" fill="#FFFFFF" fill-opacity="1.000000" fill-rule="nonzero"/>
		<path id="Vector" d="M39 1.12L40.7 1.12L40.7 4.1L40.73 4.1C41.02 3.36 41.61 2.99 42.48 2.99C43.09 2.99 43.56 3.17 43.91 3.53C44.25 3.89 44.43 4.4 44.43 5.04L44.43 8.51L42.69 8.51L42.69 5.41C42.69 5.1 42.61 4.85 42.44 4.67C42.27 4.49 42.03 4.4 41.74 4.4C41.44 4.4 41.2 4.5 41.01 4.69C40.83 4.89 40.73 5.14 40.73 5.45L40.73 8.51L39 8.51L39 1.12Z" fill="#FFFFFF" fill-opacity="1.000000" fill-rule="nonzero"/>
		<path id="Vector" d="M47.5 7.38C47.79 7.38 48.03 7.31 48.22 7.15C48.43 7 48.53 6.8 48.53 6.55L48.53 6.18L47.53 6.24C47.02 6.28 46.77 6.47 46.77 6.82C46.77 6.99 46.84 7.13 46.97 7.23C47.1 7.33 47.28 7.38 47.5 7.38ZM46.89 8.58C46.37 8.58 45.94 8.43 45.59 8.12C45.23 7.81 45.06 7.42 45.06 6.94C45.06 5.92 45.79 5.36 47.26 5.27L48.53 5.2L48.53 4.88C48.53 4.67 48.46 4.5 48.31 4.38C48.17 4.26 47.97 4.2 47.73 4.2C47.49 4.2 47.3 4.26 47.15 4.37C47 4.47 46.92 4.61 46.89 4.79L45.33 4.79C45.36 4.24 45.59 3.79 46.04 3.46C46.49 3.13 47.08 2.96 47.81 2.96C48.53 2.96 49.11 3.13 49.55 3.46C50 3.8 50.22 4.24 50.22 4.79L50.22 8.51L48.54 8.51L48.54 7.73L48.51 7.73C48.36 8 48.14 8.21 47.84 8.36C47.54 8.51 47.23 8.58 46.89 8.58Z" fill="#FFFFFF" fill-opacity="1.000000" fill-rule="nonzero"/>
		<path id="Vector" d="M53.1 3.08L54.78 3.08L54.78 4.13L54.82 4.13C54.92 3.78 55.12 3.5 55.4 3.3C55.68 3.09 56 2.99 56.37 2.99C56.77 2.99 57.11 3.09 57.37 3.29C57.63 3.49 57.8 3.77 57.88 4.14L57.92 4.14C58.02 3.79 58.23 3.51 58.53 3.3C58.84 3.09 59.19 2.99 59.6 2.99C60.13 2.99 60.55 3.16 60.88 3.5C61.21 3.84 61.38 4.28 61.38 4.83L61.38 8.51L59.65 8.51L59.65 5.27C59.65 4.69 59.39 4.39 58.87 4.39C58.62 4.39 58.43 4.48 58.29 4.64C58.14 4.8 58.07 5.02 58.07 5.29L58.07 8.51L56.42 8.51L56.42 5.25C56.42 4.97 56.35 4.76 56.21 4.61C56.08 4.47 55.89 4.39 55.64 4.39C55.4 4.39 55.2 4.48 55.05 4.64C54.9 4.81 54.83 5.03 54.83 5.3L54.83 8.51L53.1 8.51L53.1 3.08Z" fill="#FFFFFF" fill-opacity="1.000000" fill-rule="nonzero"/>
		<path id="Vector" d="M64.45 7.38C64.74 7.38 64.98 7.31 65.17 7.15C65.38 7 65.48 6.8 65.48 6.55L65.48 6.18L64.48 6.24C63.97 6.28 63.72 6.47 63.72 6.82C63.72 6.99 63.79 7.13 63.92 7.23C64.05 7.33 64.23 7.38 64.45 7.38ZM63.84 8.58C63.32 8.58 62.89 8.43 62.54 8.12C62.19 7.81 62.01 7.42 62.01 6.94C62.01 5.92 62.74 5.36 64.21 5.27L65.48 5.2L65.48 4.88C65.48 4.67 65.41 4.5 65.26 4.38C65.12 4.26 64.92 4.2 64.68 4.2C64.44 4.2 64.25 4.26 64.1 4.37C63.95 4.47 63.87 4.61 63.84 4.79L62.28 4.79C62.31 4.24 62.54 3.79 62.99 3.46C63.44 3.13 64.03 2.96 64.76 2.96C65.48 2.96 66.06 3.13 66.51 3.46C66.95 3.8 67.17 4.24 67.17 4.79L67.17 8.51L65.49 8.51L65.49 7.73L65.46 7.73C65.31 8 65.09 8.21 64.79 8.36C64.5 8.51 64.18 8.58 63.84 8.58Z" fill="#FFFFFF" fill-opacity="1.000000" fill-rule="nonzero"/>
		<path id="Vector" d="M68.03 3.08L69.71 3.08L69.71 4.1L69.75 4.1C69.95 3.37 70.37 3 71.03 3C71.19 3 71.33 3.03 71.47 3.07L71.47 4.56C71.32 4.49 71.14 4.46 70.91 4.46C70.54 4.46 70.26 4.56 70.06 4.76C69.86 4.97 69.76 5.26 69.76 5.64L69.76 8.51L68.03 8.51L68.03 3.08Z" fill="#FFFFFF" fill-opacity="1.000000" fill-rule="nonzero"/>
		<path id="Vector" d="M75.4 3.08L77.34 3.08L75.39 5.41L77.45 8.51L75.46 8.51L74.11 6.44L73.77 6.83L73.77 8.51L72.05 8.51L72.05 1.12L73.77 1.12L73.77 5.16L73.81 5.16L75.4 3.08Z" fill="#FFFFFF" fill-opacity="1.000000" fill-rule="nonzero"/>
		<path id="Vector" d="M80.08 4.19C79.8 4.19 79.57 4.28 79.38 4.47C79.19 4.65 79.08 4.89 79.06 5.18L81.08 5.18C81.06 4.88 80.96 4.64 80.78 4.46C80.6 4.28 80.36 4.19 80.08 4.19ZM82.68 6.8C82.6 7.36 82.32 7.8 81.86 8.13C81.4 8.46 80.81 8.63 80.11 8.63C79.25 8.63 78.58 8.38 78.09 7.88C77.6 7.38 77.36 6.7 77.36 5.82C77.36 4.94 77.6 4.25 78.08 3.73C78.57 3.22 79.22 2.96 80.05 2.96C80.86 2.96 81.51 3.21 81.99 3.7C82.47 4.19 82.72 4.85 82.72 5.68L82.72 6.17L79.04 6.17L79.04 6.28C79.04 6.61 79.14 6.88 79.34 7.08C79.54 7.29 79.81 7.4 80.13 7.4C80.65 7.4 80.98 7.2 81.12 6.8L82.68 6.8Z" fill="#FFFFFF" fill-opacity="1.000000" fill-rule="nonzero"/>
		<path id="Vector" d="M85.57 1.88L85.57 3.08L86.55 3.08L86.55 4.36L85.57 4.36L85.57 6.68C85.57 7.06 85.78 7.25 86.2 7.25C86.32 7.25 86.44 7.24 86.55 7.23L86.55 8.46C86.35 8.5 86.1 8.53 85.79 8.53C85.09 8.53 84.59 8.41 84.29 8.17C83.99 7.94 83.84 7.56 83.84 7.03L83.84 4.36L83.12 4.36L83.12 3.08L83.84 3.08L83.84 1.88L85.57 1.88Z" fill="#FFFFFF" fill-opacity="1.000000" fill-rule="nonzero"/>
		<path id="Vector" d="M87.31 3.08L89.04 3.08L89.04 8.51L87.31 8.51L87.31 3.08ZM88.17 2.63C87.93 2.63 87.72 2.55 87.55 2.39C87.37 2.23 87.28 2.02 87.28 1.78C87.28 1.54 87.37 1.33 87.55 1.17C87.72 1.01 87.93 0.92 88.17 0.92C88.42 0.92 88.63 1.01 88.8 1.17C88.98 1.33 89.07 1.54 89.07 1.78C89.07 2.02 88.98 2.23 88.8 2.39C88.63 2.55 88.42 2.63 88.17 2.63Z" fill="#FFFFFF" fill-opacity="1.000000" fill-rule="nonzero"/>
		<path id="Vector" d="M89.92 3.08L91.6 3.08L91.6 4.1L91.63 4.1C91.93 3.36 92.51 2.99 93.37 2.99C93.97 2.99 94.45 3.17 94.79 3.53C95.13 3.89 95.3 4.39 95.3 5.03L95.3 8.51L93.57 8.51L93.57 5.4C93.57 5.09 93.49 4.84 93.33 4.67C93.16 4.49 92.93 4.4 92.63 4.4C92.34 4.4 92.1 4.5 91.92 4.69C91.74 4.89 91.65 5.14 91.65 5.45L91.65 8.51L89.92 8.51L89.92 3.08Z" fill="#FFFFFF" fill-opacity="1.000000" fill-rule="nonzero"/>
		<path id="Vector" d="M98.79 7.17C99.11 7.17 99.37 7.05 99.55 6.81C99.74 6.57 99.84 6.23 99.84 5.79C99.84 5.35 99.74 5.01 99.55 4.75C99.37 4.49 99.11 4.37 98.79 4.37C98.47 4.37 98.21 4.49 98.03 4.75C97.84 5 97.74 5.35 97.74 5.79C97.74 6.22 97.84 6.57 98.02 6.81C98.21 7.05 98.46 7.17 98.79 7.17ZM98.76 10.52C97.99 10.52 97.37 10.38 96.89 10.08C96.41 9.77 96.15 9.37 96.13 8.87L97.81 8.87C97.84 9.02 97.95 9.14 98.14 9.24C98.32 9.33 98.54 9.37 98.79 9.37C99.1 9.37 99.36 9.3 99.55 9.15C99.73 9 99.83 8.79 99.83 8.53L99.83 7.5L99.79 7.5C99.68 7.79 99.48 8.02 99.18 8.19C98.88 8.37 98.54 8.46 98.14 8.46C97.49 8.46 96.96 8.22 96.57 7.75C96.18 7.27 95.98 6.61 95.98 5.78C95.98 4.91 96.17 4.24 96.56 3.75C96.95 3.25 97.49 3 98.17 3C98.55 3 98.89 3.1 99.19 3.29C99.48 3.47 99.68 3.72 99.81 4.03L99.84 4.03L99.84 3.08L101.56 3.08L101.56 8.4C101.56 9.05 101.31 9.56 100.79 9.94C100.28 10.33 99.61 10.52 98.76 10.52Z" fill="#FFFFFF" fill-opacity="1.000000" fill-rule="nonzero"/>
		<path id="Vector" d="M24.85 13.04L23.32 13.04L22.92 14.16L22.56 14.16L23.92 10.52L24.26 10.52L25.62 14.16L25.26 14.16L24.85 13.04ZM23.43 12.74L24.75 12.74L24.1 10.94L24.08 10.94L23.43 12.74Z" fill="#FFFFFF" fill-opacity="1.000000" fill-rule="nonzero"/>
		<path id="Vector" d="M28.15 14.16L27.71 14.16L26.38 12.83L26.36 12.83L26.36 14.16L26.03 14.16L26.03 11.44L26.36 11.44L26.36 12.67L26.38 12.67L27.68 11.44L28.1 11.44L26.71 12.73L28.15 14.16Z" fill="#FFFFFF" fill-opacity="1.000000" fill-rule="nonzero"/>
		<path id="Vector" d="M30.47 11.72L29.54 11.72L29.54 14.16L29.21 14.16L29.21 11.72L28.28 11.72L28.28 11.44L30.47 11.44L30.47 11.72Z" fill="#FFFFFF" fill-opacity="1.000000" fill-rule="nonzero"/>
		<path id="Vector" d="M31.11 15.11C31.05 15.11 30.99 15.1 30.94 15.09L30.94 14.8C30.99 14.81 31.04 14.82 31.1 14.82C31.23 14.82 31.33 14.78 31.4 14.71C31.48 14.64 31.55 14.52 31.61 14.35L31.67 14.18L30.65 11.44L31 11.44L31.84 13.82L31.84 13.82L32.68 11.44L33.03 11.44L31.97 14.29C31.86 14.61 31.74 14.83 31.62 14.94C31.5 15.05 31.33 15.11 31.11 15.11Z" fill="#FFFFFF" fill-opacity="1.000000" fill-rule="nonzero"/>
		<path id="Vector" d="M34.25 13.9C34.49 13.9 34.69 13.83 34.86 13.68C35.02 13.54 35.1 13.36 35.1 13.14L35.1 12.84L34.31 12.9C33.84 12.93 33.61 13.1 33.61 13.41C33.61 13.55 33.67 13.67 33.79 13.76C33.9 13.85 34.06 13.9 34.25 13.9ZM34.18 14.19C33.91 14.19 33.69 14.12 33.52 13.98C33.35 13.83 33.27 13.64 33.27 13.41C33.27 12.93 33.6 12.67 34.27 12.63L35.1 12.57L35.1 12.34C35.1 12.14 35.04 11.99 34.92 11.88C34.8 11.77 34.63 11.71 34.42 11.71C34.23 11.71 34.07 11.76 33.94 11.85C33.82 11.94 33.74 12.07 33.71 12.23L33.39 12.23C33.41 11.99 33.51 11.8 33.7 11.65C33.89 11.49 34.13 11.42 34.42 11.42C34.73 11.42 34.98 11.5 35.16 11.66C35.35 11.82 35.44 12.04 35.44 12.31L35.44 14.16L35.12 14.16L35.12 13.64L35.11 13.64C35.04 13.81 34.92 13.94 34.75 14.04C34.58 14.14 34.39 14.19 34.18 14.19Z" fill="#FFFFFF" fill-opacity="1.000000" fill-rule="nonzero"/>
		<path id="Vector" d="M36.67 12.99C36.64 13.38 36.58 13.67 36.49 13.85C36.37 14.07 36.19 14.18 35.95 14.18C35.89 14.18 35.84 14.17 35.8 14.16L35.8 13.85C35.84 13.87 35.88 13.87 35.93 13.87C36.07 13.87 36.17 13.79 36.24 13.62C36.29 13.48 36.34 13.27 36.36 12.98C36.4 12.58 36.43 12.06 36.46 11.44L38.2 11.44L38.2 14.16L37.87 14.16L37.87 11.72L36.76 11.72C36.74 12.24 36.71 12.66 36.67 12.99Z" fill="#FFFFFF" fill-opacity="1.000000" fill-rule="nonzero"/>
		<path id="Vector" d="M39.18 12.65L39.18 13.88L39.77 13.88C39.97 13.88 40.12 13.82 40.24 13.71C40.36 13.6 40.42 13.45 40.42 13.26C40.42 13.08 40.36 12.93 40.24 12.82C40.12 12.7 39.97 12.65 39.77 12.65L39.18 12.65ZM38.85 11.44L39.18 11.44L39.18 12.37L39.77 12.37C40.07 12.37 40.3 12.45 40.48 12.61C40.66 12.77 40.75 12.99 40.75 13.26C40.75 13.54 40.66 13.75 40.48 13.92C40.3 14.08 40.07 14.16 39.77 14.16L38.85 14.16L38.85 11.44Z" fill="#FFFFFF" fill-opacity="1.000000" fill-rule="nonzero"/>
		<path id="Vector" d="M43.11 12.89L41.59 12.89L41.59 14.16L41.25 14.16L41.25 11.44L41.59 11.44L41.59 12.61L43.11 12.61L43.11 11.44L43.44 11.44L43.44 14.16L43.11 14.16L43.11 12.89Z" fill="#FFFFFF" fill-opacity="1.000000" fill-rule="nonzero"/>
		<path id="Vector" d="M46.4 11.44L46.73 11.44L46.73 14.16L46.4 14.16L46.4 11.44ZM44.42 12.65L44.42 13.88L45.01 13.88C45.21 13.88 45.37 13.82 45.48 13.71C45.6 13.6 45.66 13.45 45.66 13.26C45.66 13.08 45.6 12.93 45.48 12.82C45.36 12.7 45.21 12.65 45.01 12.65L44.42 12.65ZM44.09 11.44L44.42 11.44L44.42 12.37L45.01 12.37C45.31 12.37 45.55 12.45 45.72 12.61C45.9 12.77 45.99 12.99 45.99 13.26C45.99 13.54 45.9 13.75 45.72 13.92C45.55 14.08 45.31 14.16 45.01 14.16L44.09 14.16L44.09 11.44Z" fill="#FFFFFF" fill-opacity="1.000000" fill-rule="nonzero"/>
		<path id="Vector" d="M48.01 10.31C48.01 10.46 48.05 10.58 48.15 10.68C48.24 10.77 48.36 10.82 48.51 10.82C48.67 10.82 48.79 10.77 48.88 10.68C48.97 10.58 49.02 10.46 49.02 10.31L49.27 10.31C49.27 10.53 49.2 10.7 49.06 10.83C48.92 10.97 48.74 11.03 48.51 11.03C48.29 11.03 48.1 10.97 47.96 10.83C47.82 10.7 47.75 10.53 47.75 10.31L48.01 10.31ZM47.38 14.17L47.38 11.45L47.71 11.45L47.71 13.65L47.72 13.65L49.27 11.45L49.6 11.45L49.6 14.17L49.27 14.17L49.27 11.97L49.25 11.97L47.71 14.17L47.38 14.17Z" fill="#FFFFFF" fill-opacity="1.000000" fill-rule="nonzero"/>
		<path id="Vector" d="M51.39 14.16L51.39 11.44L51.79 11.44L52.86 13.72L52.88 13.72L53.95 11.44L54.33 11.44L54.33 14.16L54 14.16L54 12.05L53.98 12.05L52.99 14.11L52.73 14.11L51.74 12.05L51.72 12.05L51.72 14.16L51.39 14.16Z" fill="#FFFFFF" fill-opacity="1.000000" fill-rule="nonzero"/>
		<path id="Vector" d="M55.85 13.9C56.09 13.9 56.3 13.83 56.46 13.68C56.62 13.54 56.71 13.36 56.71 13.14L56.71 12.84L55.91 12.9C55.45 12.93 55.21 13.1 55.21 13.41C55.21 13.55 55.27 13.67 55.39 13.76C55.51 13.85 55.66 13.9 55.85 13.9ZM55.78 14.19C55.51 14.19 55.29 14.12 55.12 13.98C54.96 13.83 54.87 13.64 54.87 13.41C54.87 12.93 55.21 12.67 55.87 12.63L56.71 12.57L56.71 12.34C56.71 12.14 56.65 11.99 56.53 11.88C56.41 11.77 56.24 11.71 56.02 11.71C55.83 11.71 55.67 11.76 55.55 11.85C55.42 11.94 55.34 12.07 55.31 12.23L54.99 12.23C55.01 11.99 55.11 11.8 55.3 11.65C55.5 11.49 55.73 11.42 56.02 11.42C56.33 11.42 56.58 11.5 56.76 11.66C56.95 11.82 57.04 12.04 57.04 12.31L57.04 14.16L56.72 14.16L56.72 13.64L56.71 13.64C56.64 13.81 56.52 13.94 56.35 14.04C56.18 14.14 55.99 14.19 55.78 14.19Z" fill="#FFFFFF" fill-opacity="1.000000" fill-rule="nonzero"/>
		<path id="Vector" d="M58.92 11.42C59.26 11.42 59.54 11.54 59.76 11.8C59.97 12.05 60.08 12.39 60.08 12.8C60.08 13.22 59.97 13.55 59.76 13.81C59.55 14.06 59.27 14.19 58.93 14.19C58.71 14.19 58.52 14.14 58.36 14.03C58.19 13.92 58.07 13.78 58 13.6L57.99 13.6L57.99 15.05L57.66 15.05L57.66 11.45L57.97 11.45L57.97 12.01L57.98 12.01C58.05 11.83 58.17 11.69 58.34 11.58C58.52 11.47 58.71 11.42 58.92 11.42ZM58.86 13.89C59.12 13.89 59.34 13.79 59.5 13.59C59.66 13.39 59.74 13.13 59.74 12.81C59.74 12.48 59.66 12.22 59.5 12.01C59.34 11.81 59.12 11.71 58.86 11.71C58.6 11.71 58.39 11.81 58.23 12.02C58.07 12.22 57.99 12.48 57.99 12.8C57.99 13.13 58.07 13.39 58.23 13.59C58.39 13.79 58.6 13.89 58.86 13.89Z" fill="#FFFFFF" fill-opacity="1.000000" fill-rule="nonzero"/>
		<path id="Vector" d="M62.71 14.16L62.27 14.16L60.94 12.83L60.92 12.83L60.92 14.16L60.59 14.16L60.59 11.44L60.92 11.44L60.92 12.67L60.94 12.67L62.24 11.44L62.66 11.44L61.28 12.73L62.71 14.16Z" fill="#FFFFFF" fill-opacity="1.000000" fill-rule="nonzero"/>
		<path id="Vector" d="M64.1 11.71C63.86 11.71 63.66 11.79 63.5 11.96C63.35 12.13 63.26 12.34 63.24 12.61L64.93 12.61C64.93 12.34 64.85 12.13 64.7 11.96C64.55 11.79 64.35 11.71 64.1 11.71ZM65.25 13.39C65.21 13.63 65.08 13.82 64.88 13.97C64.67 14.12 64.42 14.19 64.13 14.19C63.75 14.19 63.45 14.07 63.23 13.82C63.01 13.57 62.9 13.24 62.9 12.81C62.9 12.39 63.01 12.05 63.23 11.8C63.45 11.54 63.74 11.42 64.11 11.42C64.47 11.42 64.75 11.54 64.96 11.77C65.18 12.01 65.28 12.34 65.28 12.74L65.28 12.89L63.24 12.89L63.24 12.9C63.24 13.21 63.33 13.45 63.49 13.63C63.65 13.81 63.87 13.9 64.14 13.9C64.34 13.9 64.51 13.85 64.65 13.76C64.79 13.67 64.88 13.54 64.92 13.39L65.25 13.39Z" fill="#FFFFFF" fill-opacity="1.000000" fill-rule="nonzero"/>
		<path id="Vector" d="M67.71 11.72L66.78 11.72L66.78 14.16L66.45 14.16L66.45 11.72L65.52 11.72L65.52 11.44L67.71 11.44L67.71 11.72Z" fill="#FFFFFF" fill-opacity="1.000000" fill-rule="nonzero"/>
		<path id="Vector" d="M68.13 14.16L68.13 11.44L68.46 11.44L68.46 13.64L68.48 13.64L70.02 11.44L70.35 11.44L70.35 14.16L70.02 14.16L70.02 11.96L70.01 11.96L68.46 14.16L68.13 14.16Z" fill="#FFFFFF" fill-opacity="1.000000" fill-rule="nonzero"/>
		<path id="Vector" d="M72.86 12.89L71.33 12.89L71.33 14.16L71 14.16L71 11.44L71.33 11.44L71.33 12.61L72.86 12.61L72.86 11.44L73.19 11.44L73.19 14.16L72.86 14.16L72.86 12.89Z" fill="#FFFFFF" fill-opacity="1.000000" fill-rule="nonzero"/>
		<path id="Vector" d="M74.17 11.72L74.17 14.16L73.84 14.16L73.84 11.44L75.56 11.44L75.56 11.72L74.17 11.72Z" fill="#FFFFFF" fill-opacity="1.000000" fill-rule="nonzero"/>
		<path id="Vector" d="M77.19 14.16L77.19 11.44L77.52 11.44L77.52 13.64L77.54 13.64L79.08 11.44L79.41 11.44L79.41 14.16L79.08 14.16L79.08 11.96L79.06 11.96L77.52 14.16L77.19 14.16Z" fill="#FFFFFF" fill-opacity="1.000000" fill-rule="nonzero"/>
		<path id="Vector" d="M83.03 11.72L81.53 11.72L81.53 14.16L81.2 14.16L81.2 11.44L83.36 11.44L83.36 14.16L83.03 14.16L83.03 11.72Z" fill="#FFFFFF" fill-opacity="1.000000" fill-rule="nonzero"/>
		<path id="Vector" d="M85.28 11.42C85.62 11.42 85.9 11.54 86.11 11.8C86.33 12.05 86.43 12.39 86.43 12.8C86.43 13.22 86.33 13.55 86.11 13.81C85.9 14.06 85.63 14.19 85.28 14.19C85.07 14.19 84.88 14.14 84.71 14.03C84.55 13.92 84.43 13.78 84.35 13.6L84.35 13.6L84.35 15.05L84.01 15.05L84.01 11.45L84.33 11.45L84.33 12.01L84.34 12.01C84.41 11.83 84.53 11.69 84.7 11.58C84.87 11.47 85.07 11.42 85.28 11.42ZM85.22 13.89C85.48 13.89 85.69 13.79 85.85 13.59C86.01 13.39 86.09 13.13 86.09 12.81C86.09 12.48 86.01 12.22 85.85 12.01C85.69 11.81 85.48 11.71 85.22 11.71C84.96 11.71 84.75 11.81 84.59 12.02C84.43 12.22 84.34 12.48 84.34 12.8C84.34 13.13 84.43 13.39 84.59 13.59C84.75 13.79 84.96 13.89 85.22 13.89Z" fill="#FFFFFF" fill-opacity="1.000000" fill-rule="nonzero"/>
		<path id="Vector" d="M88.05 14.19C87.67 14.19 87.37 14.07 87.15 13.81C86.93 13.56 86.81 13.23 86.81 12.8C86.81 12.38 86.93 12.04 87.15 11.79C87.37 11.54 87.67 11.42 88.05 11.42C88.42 11.42 88.72 11.54 88.94 11.79C89.17 12.04 89.28 12.38 89.28 12.8C89.28 13.22 89.17 13.56 88.94 13.81C88.72 14.07 88.42 14.19 88.05 14.19ZM88.05 13.89C88.32 13.89 88.54 13.8 88.7 13.6C88.86 13.41 88.94 13.14 88.94 12.8C88.94 12.46 88.86 12.2 88.7 12C88.54 11.81 88.32 11.71 88.05 11.71C87.77 11.71 87.55 11.81 87.39 12C87.23 12.2 87.15 12.46 87.15 12.8C87.15 13.14 87.23 13.41 87.39 13.6C87.55 13.8 87.77 13.89 88.05 13.89Z" fill="#FFFFFF" fill-opacity="1.000000" fill-rule="nonzero"/>
		<path id="Vector" d="M91.65 11.72L90.47 11.72C90.45 12.2 90.42 12.63 90.38 12.99C90.34 13.42 90.26 13.71 90.14 13.86L90.14 13.88L91.65 13.88L91.65 11.72ZM89.52 14.88L89.52 13.88L89.74 13.88C89.92 13.76 90.03 13.46 90.07 12.98C90.12 12.36 90.16 11.85 90.18 11.44L91.99 11.44L91.99 13.88L92.43 13.88L92.43 14.88L92.11 14.88L92.11 14.16L89.83 14.16L89.83 14.88L89.52 14.88Z" fill="#FFFFFF" fill-opacity="1.000000" fill-rule="nonzero"/>
		<path id="Vector" d="M93.7 13.9C93.95 13.9 94.15 13.83 94.31 13.68C94.48 13.54 94.56 13.36 94.56 13.14L94.56 12.84L93.76 12.9C93.3 12.93 93.07 13.1 93.07 13.41C93.07 13.55 93.12 13.67 93.24 13.76C93.36 13.85 93.51 13.9 93.7 13.9ZM93.64 14.19C93.36 14.19 93.15 14.12 92.98 13.98C92.81 13.83 92.72 13.64 92.72 13.41C92.72 12.93 93.06 12.67 93.72 12.63L94.56 12.57L94.56 12.34C94.56 12.14 94.5 11.99 94.38 11.88C94.26 11.77 94.09 11.71 93.87 11.71C93.68 11.71 93.52 11.76 93.4 11.85C93.27 11.94 93.2 12.07 93.17 12.23L92.85 12.23C92.86 11.99 92.96 11.8 93.16 11.65C93.35 11.49 93.59 11.42 93.87 11.42C94.18 11.42 94.43 11.5 94.62 11.66C94.8 11.82 94.89 12.04 94.89 12.31L94.89 14.16L94.57 14.16L94.57 13.64L94.57 13.64C94.49 13.81 94.37 13.94 94.2 14.04C94.03 14.14 93.84 14.19 93.64 14.19Z" fill="#FFFFFF" fill-opacity="1.000000" fill-rule="nonzero"/>
		<path id="Vector" d="M98.91 14.16L98.48 14.16L97.26 12.83L97.24 12.83L97.24 14.16L96.91 14.16L96.91 12.83L96.9 12.83L95.68 14.16L95.25 14.16L96.56 12.74L95.29 11.44L95.71 11.44L96.9 12.67L96.91 12.67L96.91 11.44L97.24 11.44L97.24 12.67L97.26 12.67L98.44 11.44L98.86 11.44L97.59 12.73L98.91 14.16Z" fill="#FFFFFF" fill-opacity="1.000000" fill-rule="nonzero"/>
		<path id="Vector" d="M99.31 14.16L99.31 11.44L99.64 11.44L99.64 13.64L99.65 13.64L101.2 11.44L101.53 11.44L101.53 14.16L101.2 14.16L101.2 11.96L101.18 11.96L99.64 14.16L99.31 14.16Z" fill="#FFFFFF" fill-opacity="1.000000" fill-rule="nonzero"/>
		<path id="Vector" d="M12.88 9.55L12.92 9.4L14.06 12.9L13.92 13.09L13.92 13.07L13.88 13.15C10.6 17.52 3.64 16.67 1.06 12.23C-1.67 7.51 1.1 1.28 6.45 0.15C7 0.06 7.57 0 8.14 0C10.68 0 13.35 1.1 14.71 3.32L15.77 0.43L19.08 0.43L16.58 7.37L18.19 11.85C18.37 12.31 18.86 12.56 19.31 12.44L19.45 12.41L20.33 15.37L19.27 15.65C17.76 16.02 16.2 15.26 15.63 13.8C15.5 13.55 15.36 13.27 15.26 12.98L14.67 11.42L14.63 11.36L14.63 11.34L13.31 7.35C12.59 5.15 11.23 4.09 10.15 3.65C9.56 3.38 8.89 3.24 8.18 3.24C5.45 3.24 3.25 5.42 3.25 8.1C3.25 10.77 5.45 12.96 8.18 12.96C10.38 12.96 12.25 11.52 12.88 9.55Z" fill="url(#paint_linear_10_289_0)" fill-opacity="1.000000" fill-rule="evenodd"/>
	</g>
</svg>
